# xmcd CD database file
#
# Track frame offsets:
#	150
#	30767
#	64185
#	88745
#	113183
#	135091
#	154960
#	174464
#	207629
#	238762
#	261453
#	277554
#	309032
#
# Disc length: 4714 seconds
#
# Revision: 0
# Processed by: cddbd v1.5.2PL0 Copyright (c) Steve Scherf et al.
# Submitted via: CDex 1.70beta2
#
DISCID=a612680d
DTITLE=Dave Brubeck - Second Set [CD1]
DYEAR=1900
DGENRE=Jazz
TTITLE0=Blue Rondo A La Turk
TTITLE1=Strange Meadow Lark
TTITLE2=Take Five
TTITLE3=Three To Get Ready
TTITLE4=Kathy's Waltz
TTITLE5=Everybody's Jumpin'
TTITLE6=Pick Up Sticks
TTITLE7=Nomad
TTITLE8=Brandenburg Gate
TTITLE9=The Golden Horn
TTITLE10=Thank You
TTITLE11=Marble Arch
TTITLE12=Calcutta Blues
EXTD=
EXTT0=
EXTT1=
EXTT2=
EXTT3=
EXTT4=
EXTT5=
EXTT6=
EXTT7=
EXTT8=
EXTT9=
EXTT10=
EXTT11=
EXTT12=
PLAYORDER=
